# xmcd CD database file
#
# Track frame offsets:
#	150
#	7135
#	23867
#	43212
#	56557
#	71242
#	85960
#	108497
#	123630
#	134227
#	145612
#	158342
#
# Disc length: 2240 seconds
#
# Revision: 0
# Processed by: cddbd v1.5.2PL0 Copyright (c) Steve Scherf et al.
# Submitted via: CDex 1.51
#
DISCID=af08be0c
DTITLE=The Ringling Five - It Ain't Music
DYEAR=1900
DGENRE=Country
TTITLE0=It Ain't Music
TTITLE1=Jurassic Rock
TTITLE2=Next Year Waltz
TTITLE3=Leave It Behind
TTITLE4=Ye Ole Lady
TTITLE5=4 Wheeler Cowboy
TTITLE6=Rance Aerobics
TTITLE7=Don't Screw with Montana
TTITLE8=Sheep Shearers Lament
TTITLE9=Sunshine and Scenery
TTITLE10=I'll Never Let Her Go
TTITLE11=Hoop-De Poop-De Polka
EXTD=
EXTT0=
EXTT1=
EXTT2=
EXTT3=
EXTT4=
EXTT5=
EXTT6=
EXTT7=
EXTT8=
EXTT9=
EXTT10=
EXTT11=
PLAYORDER=
